# xmcd
#
# Track frame offsets:
#	150
#	19915
#	39875
#	61451
#	74807
#	91228
#	108151
#	124823
#	142248
#	156942
#	171357
#	191429
#	218857
#	232158
#	252759
#
# Disc length: 3653 seconds
#
# Revision: 0
# Processed by: cddbd v1.5.1PL0 Copyright (c) Steve Scherf et al.
# Submitted via: dBpowerAMP V4.0
#
DISCID=de0e430f
DTITLE=Fred Leonard - In my own Words
DYEAR=2003
DGENRE=Country
TTITLE0=Cincinnati Town
TTITLE1=Prey for the enemy
TTITLE2=Grandad's Favorite Song
TTITLE3=You are the one that I love
TTITLE4=Back Roads
TTITLE5=Playin' Country Music
TTITLE6=America
TTITLE7=Paula Jane
TTITLE8=Do you see me in your dreams
TTITLE9=You are my everything
TTITLE10=Eye to eye
TTITLE11=Lonely Mountain
TTITLE12=You're Beautiful
TTITLE13=We've got to make it right
TTITLE14=The founding of my fathers
EXTD=Richard Gearhart
EXTT0=
EXTT1=
EXTT2=
EXTT3=
EXTT4=
EXTT5=
EXTT6=
EXTT7=
EXTT8=
EXTT9=
EXTT10=
EXTT11=
EXTT12=
EXTT13=
EXTT14=
PLAYORDER=
